Story:
A gripping tale, the story is about three friends Prabhu (puneeth), Siddesh (yogish) and Chandru (sreenagara kitty) who can do anything for each other. They also have their own goals to achieve. Prabhu has to get a government job to marry his relative (radhika), Siddesh wants to go abroad and Chandru wants to set up a computer institute, he is also in love with Prabhu's sister (abhinaya). The story takes a turn when Prabhu's friend Sudhir (vishal) comes to him and asks for help. He is in love with Sushma (ramya), daughter of a business tycoon. Prabhu and friends risk their lives and help Sudhir and Sushma. In this process, the three friends lose very important things. What happens after that forms the rest of the story.


Movie Review : Hudugru
Rating : 3.25/5
Banner : Vajreshwari Combines
Cast : Puneet Rajkumar, Radhika Pandit, Srinagara Kitty, Abhinaya, Yogesh, Sadhu Kokila, Ramya Barna, Rangayana Raghu, Avinash, Vanitha Vasu and Others
Music : V Harikrishna
Cinematography : Satya Hegde
Producer: Raghavendra Rajkumar
Director: Maadesh
Released Date: May 20, 2011



General 

Complete name : Hudugaru - 2011\Hudugaru - 2011.mkv 
Format : Matroska 
File size : 1.63 GiB 
Duration : 2h 32mn 
Overall bit rate : 1 536 Kbps 
Encoded date : UTC 2011-07-25 11:38:03 
Writing application : mkvmerge v4.8.0 ('I Got The...') built on May 24 2011 03:12:58 
Writing library : libebml v1.2.0 + libmatroska v1.1.0 





Video 

Format : MPEG-4 Visual 
Format profile : Simple@L1 
Format settings, BVOP : No 
Format settings, QPel : No 
Format settings, GMC : No warppoints 
Format settings, Matrix : Default (H.263) 
Codec ID : DX50 
Codec ID/Hint : DivX 5 
Duration : 2h 32mn 
Bit rate : 1 378 Kbps 
Width : 720 pixels 
Height : 540 pixels 
Display aspect ratio : 4:3 
Frame rate : 29.970 fps 
Color space : YUV 
Chroma subsampling : 4:2:0 
Bit depth : 8 bits 
Scan type : Progressive 
Compression mode : Lossy 
Bits/(Pixel*Frame) : 0.118 
Stream size : 1.46 GiB (90%) 
Writing library : DigiArty AV Encoder Core 
Language : Kannada 

Audio 

Format : MPEG Audio 
Format version : Version 1 
Format profile : Layer 3 
Muxing mode : Header stripping 
Codec ID : A_MPEG/L3 
Codec ID/Hint : MP3 
Duration : 2h 32mn 
Bit rate mode : Constant 
Bit rate : 128 Kbps 
Channel(s) : 2 channels 
Sampling rate : 48.0 KHz 
Compression mode : Lossy 
Stream size : 139 MiB (8%) 
Language : Kannada 


 Screens:

  http://savesnap.com/images/hu.jpg

